<svg xmlns="http://www.w3.org/2000/svg" viewBox="0 0 1024 1024"><defs><style>.cls-1,.cls-2{fill:#99badb;}.cls-2{fill-rule:evenodd;}</style></defs><title>facebookIcon</title><g id="teeny_hands" data-name="teeny hands"><path class="cls-1" d="M259,586c-16.68-19.88,3.2-35.11,6.93-52.39-6.89-1.34-13.88-1.87-20.27-4.11-17.21-6-23.31-21.64-13.86-37.08,12.55-20.51,26.19-40.35,39.29-60.52A119,119,0,0,0,278.07,420c3-6,2.36-11.31-3.72-15.47-8.4-5.74-10-13.92-5.89-22.63,5.65-12.13,12.15-23.87,18.7-36.57l-18.34-1.9c-4.91-.51-10-.46-14.71-1.63C234.46,337,228.69,322,239.71,305.07c22.37-34.34,55.2-55.13,92.16-70.13,56.57-23,115.83-32.55,176.59-34.1,27.75-.71,55.39-.47,82.41,7.3,71.33,20.52,113.86,68.72,131.82,139.23,5.24,20.57,7.36,42.16,8.78,63.43,4.3,64.86,22.34,125.66,52.34,183,4.82,9.21,4.43,15.33-4.31,20.21-13.93,7.76-28.14,15-42.86,22.83,6.09,7.21,13.81,15.55,20.6,24.59,10.29,13.68,20.27,27.62,29.68,41.92,3.73,5.67,6.25,12.38,8.19,18.95,4.62,15.58-1.54,25.52-17.64,27.24a108.34,108.34,0,0,1-29.52-.68c-48.26-8.29-95.34-2-141.85,10.78-52.24,14.32-102.1,35-150.76,58.59-3.23,1.57-6.52,3-11.37,5.23,1.16-7.46,2.19-13.66,3.07-19.87,2.48-17.48-.8-30.92-17.67-41.95-42.84-28-85.88-55.16-133.68-74.22-17.74-7.07-32.1-18.44-34.21-39.77-1-10.08,3.9-17.56,9.45-25.19,6.37-8.77,4.52-14.15-5.9-16C250.1,603.73,248.44,598.09,259,586Z"/><g id="Raised_hands_silhouette_isolated_on_white" data-name="Raised hands silhouette isolated on white"><path class="cls-2" d="M153.29,577.64c-4.39-2.64-16-8.79-20.53-10-2.33-.64-5.23.31-9,.91-3.17.5-6.58.47-9,.91-5.94,1.08-12.41,3.33-17.28,4.73-5.7,1.63-11.27,4-17,6.18s-12.05,3.67-17,6.18c-2.33,1.2-10.11,7.86-12.49,6.77-3.7-1.7-2.26-8.44-.32-11.51,6.46-10.18,17.42-11.83,24.9-16.09,4-2.25,8.65-5.19,10.94-10.21,5-11.06-8.57-23.74-22.23-30.52-8.42-4.19-18-7.07-29.19-12.9C29,508.82,7.69,502.45,12.78,494c2.93-4.89,11.63-1.28,17.06,1,11.42,4.82,23.13,7.45,34,10.3,3,.78,11.1,3.27,8.78-.6C55,493,41.76,482.94,28.11,475.49c-4.29-3.34-10.49-7.33-7.22-12.39,4.94-7.64,15.48.57,20.66,4.15,10.76,7.45,18,10.21,27,15.72,5.37,3.31,12.32,8,13.71,6.95,1.61-2.06-4.92-10-7.46-13.8-6-9-13.08-15.77-19.72-24.91-1.89-2.61-6-5.47-3.53-9.77,4.87-8.54,15.71,3.56,18.77,7.66C76.65,457.65,82.51,462,87.54,470c2.7,4.28,7.77,10.49,12.5,13,2.91,1.41,3.67-8.32,3.58-12.71-.13-6.8-5.63-23.6-5.85-26.64-.19-2.5-3.59-12,1.52-13,4.89-.95,8.43,6.69,9.45,10.46,4.26,15.65,8.73,29.77,17.77,43.34,6,7.64,13.41,11.44,18.95,18.06,3.21,3.84,9.14,12.24,12.58,15.68,8.3,8.31,15,11.77,25.2,16.79"/></g><g id="Raised_hands_silhouette_isolated_on_white-2" data-name="Raised hands silhouette isolated on white"><path class="cls-2" d="M870.71,577.64c4.39-2.64,16-8.79,20.53-10,2.33-.64,5.23.31,9,.91,3.17.5,6.58.47,9,.91,5.94,1.08,12.41,3.33,17.28,4.73,5.7,1.63,11.27,4,17,6.18s12.05,3.67,17,6.18c2.33,1.2,10.11,7.86,12.49,6.77,3.7-1.7,2.26-8.44.32-11.51-6.46-10.18-17.42-11.83-24.9-16.09-4-2.25-8.65-5.19-10.94-10.21-5-11.06,8.57-23.74,22.23-30.52,8.42-4.19,18-7.07,29.19-12.9,6.22-3.24,27.55-9.61,22.46-18.09-2.93-4.89-11.63-1.28-17.06,1-11.42,4.82-23.13,7.45-34,10.3-3,.78-11.1,3.27-8.78-.6C969,493,982.24,482.94,995.89,475.49c4.29-3.34,10.49-7.33,7.22-12.39-4.94-7.64-15.48.57-20.66,4.15-10.76,7.45-18,10.21-27,15.72-5.37,3.31-12.32,8-13.71,6.95-1.61-2.06,4.92-10,7.46-13.8,6-9,13.08-15.77,19.72-24.91,1.89-2.61,6-5.47,3.53-9.77-4.87-8.54-15.71,3.56-18.77,7.66-6.36,8.55-12.23,12.91-17.25,20.88-2.7,4.28-7.77,10.49-12.5,13-2.91,1.41-3.67-8.32-3.58-12.71.13-6.8,5.63-23.6,5.85-26.64.19-2.5,3.59-12-1.52-13-4.89-.95-8.43,6.69-9.45,10.46-4.26,15.65-8.73,29.77-17.77,43.34-6,7.64-13.41,11.44-18.95,18.06-3.21,3.84-9.14,12.24-12.58,15.68-8.3,8.31-15,11.77-25.2,16.79"/></g></g></svg>