<svg id="Layer_1" data-name="Layer 1" xmlns="http://www.w3.org/2000/svg" viewBox="0 0 1500 2000.98"><defs><style>.cls-1{fill:#e0162b;}</style></defs><title>logo</title><path class="cls-1" d="M429.15,2001.49c-.19-7.15.29-14.39-.71-21.42-3.1-21.74-6.76-43.39-10.82-68.94,29.2-10,25.7-39.44,22-69.9,24-2.48,46.09-3,67.3-7.59,14.35-3.13,27.86-11.29,41-18.56,39.92-22.08,58.06-57.32,61.38-102,2.55-34.34,8.26-68.48,9.81-102.83.79-17.64-1.53-36.6-7.49-53.15C584,1480.42,571.38,1401.54,570,1320.25c-.38-22.45-4.67-45.23-10.16-67.11-13.32-53.09-17.82-106.22-7.45-160.28.93-4.82,1.86-11.38-.53-14.84-26.37-38.23-16-79.37-6.84-118.63,6.19-26.61,21.76-51,32-76.76a45.54,45.54,0,0,0,2.46-24.36,452.63,452.63,0,0,0-14.68-56.15c-7.62-22.72-16.62-45-26.1-67-1.51-3.52-8.71-6.65-13.15-6.5-17.4.62-20-10.3-17.77-22.94,5.31-30.48,12.32-60.66,17.7-91.13,2.07-11.69,4.7-24.69,1.71-35.62-12.65-46.26-28.34-91.69-40.86-138-6.75-25-9.32-51.06-14-78-18.7,6.34-24.49-6-28-20.51-4-16.52-10.31-32.26-3.88-50.59,2.67-7.63-4.6-18.78-7.45-28.3-5.93-19.86-12.86-39.16-2.81-60.32,8.84-18.62-10.06-27.89-19.47-34.79-15.25-11.18-25.06-19.49-13.87-38.45,1.41-2.38,1.69-7.52.14-9.23-14-15.46,3.06-17.95,10.19-21.87,9.28-5.11,20.38-6.92,31.86-10.52-4.48-8.83-8.85-16-11.88-23.67C419.86,46.05,425,34.94,442,24.23c9.67-6.08,17.51-15.06,26.18-22.74h11.72l5.77,25.46L531.37,5.76c-6.22,13.89-10,25.33-16.14,35.28-7.8,12.58-18.1,23.59-26.23,36-3,4.55-2.85,11.14-4,16,12.91,3.1,23.11,5.27,33.1,8.17,2.49.72,5.78,3.58,6.16,5.88,2.11,12.79,5.25,25.8,4.57,38.55-.85,15.86-13.32,21.61-27.56,25.39-13.59,3.61-22.9,32.33-13.62,43.22,21.16,24.83,27.88,54.86,35.51,85.29,7.71,30.74,18.37,60.78,28.56,90.85,6.46,19,15.1,37.35,21.52,56.41,6.17,18.31,10.75,37.17,16.34,56.86,20-2.61,39.55-3.71,58.27-8.3,8-2,14.15-11.21,22.62-18.4l-65.63-46.8,2.18-4.24c16.31,7.89,33,15.08,48.83,23.89,15.34,8.55,29.67,13,44.78-3.48l-29.84-72.22,3.31-1.67c12.75,18.65,26.54,36.7,37.9,56.16,8.45,14.48,18.78,22.26,37.57,20.19l28.11-55.29,4.2,1.18c-2.67,15.35-6,30.63-7.7,46.09-.7,6.17-.18,15.15,3.63,18.58,7.14,6.43,15.39,12.62,27.66,5.9A257,257,0,0,1,865.36,442l-58.79,47.11c12.26,5,20.39,10.9,28.83,11.37,23.92,1.34,48,.47,74.32.47L840.3,519.54c-3.33,18.62-6.22,34.65-9,50.7-.22,1.25-.4,3,.28,3.82,14.33,16.28,9.93,35.7,11.07,54.78.66,11.05,5.11,19.58-.94,32.15-2.65,5.5,14.87,21.48,24.27,31.75a124.14,124.14,0,0,0,22.91,19.46c42.76,28.33,56.6,76.32,80.89,117.26,6,10,13.8,19,22.51,30.74l23.24-48.2c32.78.46,53.92,32.54,41.5,62.38-3,7.19-5.84,14.47-9.25,21.47-5.7,11.67-3.53,21.15.61,34.12,15.38,48.13,35,96.51,13.51,148.85-9,22-11.7,46.63-20.78,68.62-16.33,39.56-36.85,46.89-76.7,31.28-2.26-.88-4.87-.86-8.79-1.49,0,5.38-.28,9.69,0,13.95,7,91.41,14.44,182.79,21,274.23,2.22,31.22,2.2,62.61,3.11,93.92.07,2.56.38,5.88-1,7.61-24.06,30.58-11.22,64.38-9.23,97.41,1.65,27.43-2.5,55.89,3.45,82.19,7.34,32.49,22,63.42,34.8,94.48,1.72,4.16,11,5.81,17,7.48,21.18,5.85,42.5,11.2,64.25,16.87,1.92,25.54-11,57.66,35.52,61.58-27.53,22.17-24.61,48.57-23.51,74.54ZM673.79,627.69,690.4,589.8c-30.48-3.95-15.09-30.61-26.35-45.76l-45.13,3.2C633.52,578.83,629,618.81,673.79,627.69ZM590.56,510c20.11,33.44,36.23,36.71,75.47,14.63-4.72-5-8.91-13.61-13.74-14C632,509.14,611.52,510,590.56,510Z"/></svg>