<svg xmlns="http://www.w3.org/2000/svg" viewBox="0 0 550 342.57"><defs><style>.cls-1,.cls-2{fill:#99badb;}.cls-2{fill-rule:evenodd;}</style></defs><title>trumpWatermark</title><g id="Layer_1" data-name="Layer 1"><path class="cls-1" d="M147.25,208.66c-8.43-10,1.62-17.73,3.5-26.46-3.48-.68-7-.95-10.24-2.08-8.69-3-11.77-10.93-7-18.72,6.34-10.36,13.23-20.38,19.84-30.56a60.12,60.12,0,0,0,3.51-6c1.51-3.05,1.19-5.71-1.88-7.81-4.24-2.9-5-7-3-11.43,2.85-6.13,6.14-12.05,9.44-18.47l-9.26-1a54.65,54.65,0,0,1-7.43-.82c-9.92-2.45-12.83-10-7.26-18.55,11.3-17.34,27.88-27.84,46.54-35.42,28.57-11.6,58.49-16.44,89.18-17.22,14-.36,28-.24,41.62,3.69,36,10.36,57.5,34.7,66.57,70.31,2.65,10.39,3.72,21.29,4.43,32,2.17,32.75,11.28,63.46,26.43,92.41,2.43,4.65,2.24,7.74-2.18,10.2-7,3.92-14.21,7.59-21.64,11.53,3.07,3.64,7,7.85,10.4,12.42,5.19,6.91,10.23,14,15,21.17a36.12,36.12,0,0,1,4.14,9.57c2.33,7.87-.78,12.89-8.91,13.76a54.71,54.71,0,0,1-14.91-.34c-24.37-4.19-48.14-1-71.63,5.44C296.15,303.56,271,314,246.4,325.92c-1.63.79-3.29,1.52-5.74,2.64.58-3.77,1.1-6.9,1.55-10,1.25-8.83-.4-15.61-8.92-21.18-21.63-14.14-43.37-27.85-67.51-37.48-9-3.57-16.21-9.31-17.28-20.08-.5-5.09,2-8.87,4.77-12.72,3.22-4.43,2.28-7.15-3-8.09C142.74,217.61,141.9,214.76,147.25,208.66Z"/></g><g id="teeny_hands" data-name="teeny hands"><g id="Raised_hands_silhouette_isolated_on_white" data-name="Raised hands silhouette isolated on white"><path class="cls-2" d="M93.85,204.44c-2.22-1.33-8.1-4.44-10.37-5.07-1.17-.32-2.64.16-4.53.46-1.6.25-3.32.24-4.53.46-3,.55-6.27,1.68-8.73,2.39-2.88.82-5.69,2-8.56,3.12s-6.09,1.85-8.56,3.12c-1.18.6-5.1,4-6.31,3.42-1.87-.86-1.14-4.26-.16-5.81,3.26-5.14,8.8-6,12.57-8.12,2-1.14,4.37-2.62,5.53-5.16,2.55-5.58-4.33-12-11.23-15.41-4.25-2.11-9.09-3.57-14.74-6.51-3.14-1.63-13.91-4.85-11.34-9.13,1.48-2.47,5.87-.65,8.61.51,5.77,2.44,11.68,3.76,17.15,5.2,1.5.4,5.6,1.65,4.44-.3-8.89-5.89-15.56-11-22.45-14.74-2.17-1.69-5.3-3.7-3.65-6.26,2.49-3.86,7.82.29,10.44,2.1,5.44,3.76,9.11,5.16,13.62,7.94,2.71,1.67,6.22,4,6.92,3.51.81-1-2.48-5-3.77-7-3-4.57-6.61-8-10-12.58-1-1.32-3-2.76-1.78-4.94,2.46-4.31,7.93,1.8,9.48,3.87,3.21,4.32,6.18,6.52,8.71,10.55,1.37,2.16,3.92,5.3,6.31,6.57,1.47.71,1.85-4.2,1.81-6.42-.07-3.43-2.84-11.92-3-13.45-.1-1.26-1.81-6,.77-6.55s4.26,3.38,4.77,5.28c2.15,7.9,4.41,15,9,21.89,3,3.86,6.77,5.78,9.57,9.12,1.62,1.94,4.62,6.18,6.35,7.92,4.19,4.2,7.56,5.94,12.73,8.48"/></g><g id="Raised_hands_silhouette_isolated_on_white-2" data-name="Raised hands silhouette isolated on white"><path class="cls-2" d="M456.15,204.44c2.22-1.33,8.1-4.44,10.37-5.07,1.17-.32,2.64.16,4.53.46,1.6.25,3.32.24,4.53.46,3,.55,6.27,1.68,8.73,2.39,2.88.82,5.69,2,8.56,3.12s6.09,1.85,8.56,3.12c1.18.6,5.1,4,6.31,3.42,1.87-.86,1.14-4.26.16-5.81-3.26-5.14-8.8-6-12.57-8.12-2-1.14-4.37-2.62-5.53-5.16-2.55-5.58,4.33-12,11.23-15.41,4.25-2.11,9.09-3.57,14.74-6.51,3.14-1.63,13.91-4.85,11.34-9.13-1.48-2.47-5.87-.65-8.61.51-5.77,2.44-11.68,3.76-17.15,5.2-1.5.4-5.6,1.65-4.44-.3,8.89-5.89,15.56-11,22.45-14.74,2.17-1.69,5.3-3.7,3.65-6.26-2.49-3.86-7.82.29-10.44,2.1-5.44,3.76-9.11,5.16-13.62,7.94-2.71,1.67-6.22,4-6.92,3.51-.81-1,2.48-5,3.77-7,3-4.57,6.61-8,10-12.58,1-1.32,3-2.76,1.78-4.94-2.46-4.31-7.93,1.8-9.48,3.87-3.21,4.32-6.18,6.52-8.71,10.55-1.37,2.16-3.92,5.3-6.31,6.57-1.47.71-1.85-4.2-1.81-6.42.07-3.43,2.84-11.92,3-13.45.1-1.26,1.81-6-.77-6.55s-4.26,3.38-4.77,5.28c-2.15,7.9-4.41,15-9,21.89-3,3.86-6.77,5.78-9.57,9.12-1.62,1.94-4.62,6.18-6.35,7.92-4.19,4.2-7.56,5.94-12.73,8.48"/></g></g></svg>