<svg id="Layer_1" data-name="Layer 1" xmlns="http://www.w3.org/2000/svg" viewBox="0 0 767.67 840"><defs><style>.cls-1{fill:#99badb;}</style></defs><title>trumpWatermark</title><path class="cls-1" d="M50.53,517.5c-22-26.19,4.22-46.26,9.13-69-9.08-1.77-18.29-2.47-26.71-5.42-22.67-7.94-30.71-28.51-18.26-48.85,16.53-27,34.51-53.16,51.77-79.74a156.85,156.85,0,0,0,9.15-15.67c3.94-8,3.11-14.9-4.91-20.38-11.07-7.57-13.12-18.33-7.77-29.82,7.45-16,16-31.45,24.64-48.19l-24.16-2.51c-6.47-.67-13.12-.6-19.38-2.14-25.88-6.38-33.48-26.1-19-48.39,29.48-45.24,72.73-72.64,121.43-92.41C221,24.7,299.13,12.06,379.19,10c36.57-.94,73-.63,108.59,9.62,94,27,150,90.54,173.69,183.45,6.91,27.1,9.7,55.55,11.56,83.57,5.67,85.46,29.43,165.57,69,241.11,6.35,12.13,5.84,20.2-5.68,26.62-18.35,10.22-37.07,19.79-56.47,30.08,8,9.5,18.19,20.49,27.14,32.39,13.55,18,26.7,36.4,39.11,55.23,4.92,7.47,8.23,16.31,10.8,25,6.09,20.52-2,33.63-23.25,35.9a142.75,142.75,0,0,1-38.89-.9c-63.59-10.93-125.61-2.59-186.89,14.2C439,765.12,373.32,792.31,309.2,823.45c-4.25,2.07-8.6,4-15,6.89,1.53-9.83,2.88-18,4-26.19,3.26-23-1.05-40.74-23.28-55.27C218.54,712,161.82,676.2,98.85,651.08c-23.37-9.32-42.3-24.29-45.07-52.4-1.31-13.28,5.14-23.13,12.45-33.19,8.39-11.55,6-18.65-7.78-21.11C38.77,540.86,36.58,533.43,50.53,517.5Z"/></svg>